<?xml version="1.0" encoding="UTF-8"?>
<svg id="Layer_2" data-name="Layer 2" xmlns="http://www.w3.org/2000/svg" xmlns:xlink="http://www.w3.org/1999/xlink" viewBox="0 0 420 54.88">
  <defs>
    <style>
      .cls-1 {
        fill: url(#linear-gradient);
      }

      .cls-2 {
        fill: url(#linear-gradient-9);
      }

      .cls-3 {
        fill: url(#linear-gradient-3);
      }

      .cls-4 {
        fill: url(#linear-gradient-4);
      }

      .cls-5 {
        fill: url(#linear-gradient-2);
      }

      .cls-6 {
        fill: url(#linear-gradient-6);
      }

      .cls-7 {
        fill: url(#linear-gradient-7);
      }

      .cls-8 {
        fill: url(#linear-gradient-5);
      }

      .cls-9 {
        fill: url(#linear-gradient-8);
        fill-rule: evenodd;
      }
    </style>
    <linearGradient id="linear-gradient" x1="0" y1="29.23" x2="420" y2="29.23" gradientTransform="translate(0 56.88) scale(1 -1)" gradientUnits="userSpaceOnUse">
      <stop offset="0" stop-color="#ed4264"/>
      <stop offset="1" stop-color="#ffedbc"/>
    </linearGradient>
    <linearGradient id="linear-gradient-2" y1="29.23" y2="29.23" xlink:href="#linear-gradient"/>
    <linearGradient id="linear-gradient-3" y1="29.44" y2="29.44" xlink:href="#linear-gradient"/>
    <linearGradient id="linear-gradient-4" x1="0" y1="29.29" x2="420" y2="29.29" xlink:href="#linear-gradient"/>
    <linearGradient id="linear-gradient-5" y1="29.23" y2="29.23" xlink:href="#linear-gradient"/>
    <linearGradient id="linear-gradient-6" y1="29.29" y2="29.29" xlink:href="#linear-gradient"/>
    <linearGradient id="linear-gradient-7" x1="0" y1="29.23" x2="420" y2="29.23" xlink:href="#linear-gradient"/>
    <linearGradient id="linear-gradient-8" x1="0" y1="29.44" x2="420" y2="29.44" xlink:href="#linear-gradient"/>
    <linearGradient id="linear-gradient-9" y1="29.44" y2="29.44" xlink:href="#linear-gradient"/>
  </defs>
  <g id="Layer_1-2" data-name="Layer 1">
    <g>
      <g>
        <path class="cls-1" d="m103.19,6.21c-1.41,0-2.39.98-2.39,2.39v6.74c0,.18.06.25.25.25h37.32c1.53,0,2.21.25,2.51.67.31.31.61.92.61,2.39v7.23c0,2.45-.67,3.06-3.13,3.06h-22.19c-.25,0-.37.25-.18.43,3.62,3.43,13.3,12.81,20.35,19.67,0,.06.06.06.18.06h13.91c.18,0,.37-.25.18-.43-2.14-2.14-7.97-7.66-10.54-10.11-.18-.18-.06-.43.18-.43,7.66-.8,11.46-3.62,11.46-11.58v-8.52c0-7.66-4.17-11.83-11.83-11.83h-36.71Z"/>
        <path class="cls-5" d="m161.48,6.21c-1.41,0-2.39.98-2.39,2.39v38.12c0,1.41.98,2.39,2.39,2.39h5.39c.55,0,1.23-.12,1.72-.67.55-.55.67-1.23.67-1.72V8.6c0-.49-.12-1.16-.67-1.72-.49-.55-1.16-.67-1.72-.67h-5.39Z"/>
        <path class="cls-3" d="m190.03,5.78c-8.4,0-13.42,3.68-13.42,12.44s5.03,12.44,13.3,12.93l25.8,1.47c1.9.06,2.76.55,3.25,1.04.49.55.74,1.47.74,2.76,0,2.7-1.16,3.31-3.8,3.31-5.39.06-10.36.06-15.26.06-8.15,0-17.4.06-21.51.06h-2.27c-.18.06-.25.12-.25.31.18,4.96,4.23,8.95,9.19,8.95h30.58c8.52,0,13.42-3.68,13.42-12.5s-5.15-12.44-13.3-12.87l-25.8-1.47c-1.9-.18-2.76-.55-3.25-1.1-.55-.55-.8-1.41-.8-2.7,0-1.41.31-2.08.74-2.51.43-.43,1.35-.8,3.06-.8h39.1c.18,0,.25-.06.25-.25v-.06c0-5.09-3.98-9.07-9.07-9.07h-30.7Z"/>
        <path class="cls-4" d="m276.38,45.98c.67.55,1.16.98,1.59,1.29l.55.49,1.35,1.1c.25.12.61.18,1.04.18h7.42c1.9,0,2.76-2.39,1.29-3.68-6.86-5.88-16.12-13.36-20.16-16.73l-4.66-3.86c-.18-.18-.12-.31.06-.43,1.65-.98,13.85-8.64,22.98-14.34,1.84-1.16.98-3.86-1.1-3.86h-7.97c-.43,0-.74,0-.86.06-.92.18-1.65.49-2.21.98q-.06.06-.12.06l-26.35,16.18c-.18.12-.25.25-.06.43,3.92,3.13,7.6,6.13,11.09,9.01,5.82,4.84,12.69,10.48,16.12,13.12h0ZM239.55,6.14c-1.41,0-2.39.98-2.39,2.39v38.12c0,1.41.98,2.39,2.39,2.39h5.39c.55,0,1.23-.12,1.72-.67.55-.55.67-1.23.67-1.72V8.54c0-.49-.12-1.16-.67-1.72-.49-.55-1.16-.67-1.72-.67h-5.39Z"/>
        <path class="cls-8" d="m297.1,6.21c-1.41,0-2.39.98-2.39,2.39v38.12c0,1.41.98,2.39,2.39,2.39h5.39c.55,0,1.23-.12,1.72-.67.55-.55.67-1.23.67-1.72V8.6c0-.49-.12-1.16-.67-1.72-.49-.55-1.16-.67-1.72-.67h-5.39Z"/>
        <path class="cls-6" d="m312.24,46.72c0,1.41.98,2.33,2.39,2.33h5.39c.55,0,1.23-.12,1.72-.67.55-.55.67-1.23.67-1.65v-12.81c0-.25.06-.43.12-.86.18-.25.31-.55.49-.74.25-.37.92-.61,2.02-.74h33.4c1.47,0,2.39-.98,2.39-2.45v-4.6c0-1.47-.92-2.33-2.39-2.33h-45.96c-.18,0-.25.06-.25.25v24.27Zm48.17-31.5c.18-.06.18-.18.37-.25.55-.55.67-1.16.67-1.84v-4.6c0-1.29-.98-2.39-2.39-2.39h-44.68c-1.16,0-2.14.98-2.14,2.21v6.93c0,.25.06.37.25.37,5.21,0,12.32-.06,12.5-.06h34.07c.43,0,.92-.12,1.35-.37h0Z"/>
        <path class="cls-7" d="m365.98,7.49c-.18.43-.18.8-.06,1.1.06.55.37.92.67,1.23.06,0,5.21,5.76,10.6,11.46l10.66,11.52v13.91c0,1.41.98,2.39,2.39,2.39h5.27c.55,0,1.23-.12,1.72-.67.55-.55.67-1.23.67-1.72v-13.91l21.39-23.04c.25-.25.55-.61.61-1.16.12-.31.12-.67-.06-1.1-.18-.43-.49-.67-.74-.86-.43-.31-.86-.43-1.41-.43h-6.31c-1.41,0-2.14.8-2.64,1.29l-2.45,2.7-5.45,5.88-7.91,8.52-15.87-17.04c-.55-.55-1.29-1.35-2.7-1.35h-6.31c-.92,0-1.78.49-2.08,1.29h0Z"/>
      </g>
      <path class="cls-9" d="m47.75,15.77c1,1.73,1.77,3.6,2.3,5.57,2.77.66,4.83,3.13,4.83,6.1s-2.06,5.44-4.83,6.1c-.53,1.97-1.31,3.84-2.3,5.57,1.49,2.42,1.2,5.63-.9,7.73-2.1,2.1-5.31,2.39-7.73.9-1.73,1-3.6,1.77-5.57,2.3-.66,2.77-3.14,4.83-6.1,4.83s-5.45-2.06-6.1-4.83c-1.97-.53-3.85-1.31-5.58-2.3-2.42,1.49-5.63,1.2-7.72-.9-2.1-2.1-2.39-5.3-.9-7.72-1-1.73-1.77-3.6-2.3-5.58-2.77-.66-4.83-3.13-4.83-6.1s2.06-5.44,4.83-6.1c.53-1.97,1.31-3.84,2.3-5.58-1.49-2.42-1.2-5.63.9-7.73,2.1-2.1,5.3-2.39,7.73-.9,1.73-1,3.6-1.77,5.58-2.3.66-2.77,3.13-4.83,6.1-4.83s5.44,2.07,6.1,4.83c1.97.53,3.84,1.31,5.57,2.3,2.42-1.49,5.63-1.2,7.73.9,2.1,2.1,2.39,5.31.9,7.73h0ZM29.73,6.29c0-1.26-1.02-2.29-2.29-2.29s-2.29,1.03-2.29,2.29,1.02,2.29,2.29,2.29,2.29-1.02,2.29-2.29Zm14.33,30.08c.59-1.1,1.07-2.26,1.44-3.48-1.9-1.08-3.2-3.1-3.2-5.44s1.29-4.36,3.2-5.44c-.37-1.21-.85-2.38-1.44-3.47-2.11.58-4.45.07-6.11-1.59-1.66-1.66-2.17-4-1.59-6.11-1.1-.59-2.26-1.07-3.48-1.44-1.08,1.9-3.11,3.2-5.45,3.2s-4.36-1.3-5.45-3.2c-1.21.37-2.38.85-3.48,1.44.58,2.11.07,4.46-1.59,6.11-1.66,1.66-4.01,2.17-6.11,1.59-.59,1.1-1.07,2.26-1.44,3.48,1.9,1.08,3.2,3.1,3.2,5.44s-1.3,4.36-3.2,5.44c.37,1.22.85,2.38,1.44,3.48,2.11-.58,4.46-.07,6.11,1.59,1.66,1.66,2.17,4,1.59,6.11,1.1.59,2.26,1.07,3.48,1.44,1.08-1.9,3.1-3.2,5.45-3.2s4.36,1.29,5.45,3.2c1.21-.37,2.38-.85,3.48-1.44-.58-2.11-.07-4.45,1.59-6.11,1.65-1.66,4-2.17,6.11-1.59Zm-.05-25.5c-.89-.89-2.34-.89-3.23,0-.89.9-.89,2.34,0,3.24.89.89,2.34.89,3.23,0,.89-.9.89-2.34,0-3.24Zm-29.92,0c-.89-.89-2.34-.89-3.23,0-.89.89-.89,2.34,0,3.24.89.89,2.34.89,3.23,0,.89-.89.89-2.34,0-3.24ZM4,27.44c0,1.26,1.02,2.29,2.29,2.29s2.29-1.02,2.29-2.29-1.02-2.29-2.29-2.29-2.29,1.02-2.29,2.29Zm42.31,0c0,1.26,1.02,2.29,2.29,2.29s2.29-1.02,2.29-2.29-1.02-2.29-2.29-2.29-2.29,1.02-2.29,2.29Zm-5.53,16.57c.89.89,2.34.89,3.23,0,.89-.89.89-2.34,0-3.23-.89-.9-2.34-.89-3.23,0-.89.89-.9,2.34,0,3.23Zm-29.92,0c.89.89,2.34.89,3.23,0,.89-.89.89-2.34,0-3.23-.89-.89-2.34-.89-3.23,0-.89.89-.89,2.34,0,3.23Zm14.29,4.58c0,1.26,1.02,2.29,2.29,2.29s2.29-1.02,2.29-2.29-1.02-2.29-2.29-2.29-2.29,1.02-2.29,2.29Z"/>
      <path class="cls-2" d="m73.25,54.88V0h1.74v54.88h-1.74Z"/>
    </g>
  </g>
</svg>